<?xml version="1.0" standalone="no"?>
<!DOCTYPE svg PUBLIC "-//W3C//DTD SVG 20010904//EN"
 "http://www.w3.org/TR/2001/REC-SVG-20010904/DTD/svg10.dtd">
<svg version="1.0" xmlns="http://www.w3.org/2000/svg"
 width="353.000000pt" height="290.000000pt" viewBox="0 0 353.000000 290.000000"
 preserveAspectRatio="xMidYMid meet">

<g transform="translate(0.000000,290.000000) scale(0.100000,-0.100000)"
fill="#000000" stroke="none">
<path d="M1547 2572 c-37 -41 -20 -71 83 -147 36 -27 69 -52 74 -56 5 -4 -28
-26 -72 -48 -77 -39 -102 -62 -102 -93 0 -33 29 -50 130 -76 l105 -27 6 -255
c5 -241 7 -259 30 -321 42 -109 76 -158 200 -284 65 -66 120 -132 124 -146 9
-37 -21 -69 -70 -75 -22 -2 -170 -16 -330 -29 -898 -78 -1190 -107 -1217 -121
-66 -34 -76 -131 -19 -188 l31 -31 967 -3 c621 -1 986 1 1021 8 83 15 157 53
215 112 165 165 164 425 -2 585 -22 21 -138 100 -257 174 -119 74 -236 153
-260 177 -51 50 -74 115 -74 204 l0 58 63 0 c59 0 65 -2 98 -36 50 -53 101
-75 185 -81 120 -9 189 21 231 100 22 42 21 113 -2 157 -24 46 -208 295 -254
344 -45 48 -92 78 -155 99 -42 15 -99 17 -391 17 -319 0 -343 -1 -358 -18z
m813 -289 c0 -18 -59 -53 -88 -53 -31 0 -82 52 -82 83 l0 24 85 -20 c53 -13
85 -26 85 -34z"/>
<path d="M988 2183 c-41 -20 -513 -435 -529 -466 -14 -25 -3 -64 21 -77 18
-10 226 18 573 75 15 2 27 3 27 1 0 -2 -57 -52 -126 -112 -155 -133 -166 -152
-124 -194 19 -19 33 -20 461 -20 416 0 441 1 435 18 -3 9 -20 58 -37 107 -27
76 -33 108 -37 207 -3 92 -8 120 -21 130 -9 8 -127 87 -263 177 -219 145 -253
164 -295 168 -32 2 -60 -2 -85 -14z"/>
</g>
</svg>
